<!DOCTYPE svg PUBLIC "-//W3C//DTD SVG 1.1//EN" "http://www.w3.org/Graphics/SVG/1.1/DTD/svg11.dtd">
<!-- Uploaded to: SVG Repo, www.svgrepo.com, Transformed by: SVG Repo Mixer Tools -->
<svg fill="#ffffff" width="800px" height="800px" viewBox="0 0 1920 1920" xmlns="http://www.w3.org/2000/svg" stroke="#ffffff">
<g id="SVGRepo_bgCarrier" stroke-width="0"/>
<g id="SVGRepo_tracerCarrier" stroke-linecap="round" stroke-linejoin="round" stroke="#CCCCCC" stroke-width="11.52"> <path d="M1242.353 677.647V1920H0V677.647h1242.353Zm-338.824 790.588H338.824v112.941h564.705v-112.94Zm677.647-1129.411v1242.352h-225.882V564.706H338.824V338.824h1242.352Zm-790.475 903.529H338.824v112.941H790.7v-112.941ZM1920.034-.011v1242.353h-225.882V225.872H677.68V-.012h1242.353ZM903.529 1016.47H338.824v112.94h564.705v-112.94Z" fill-rule="evenodd"/> </g>
<g id="SVGRepo_iconCarrier"> <path d="M1242.353 677.647V1920H0V677.647h1242.353Zm-338.824 790.588H338.824v112.941h564.705v-112.94Zm677.647-1129.411v1242.352h-225.882V564.706H338.824V338.824h1242.352Zm-790.475 903.529H338.824v112.941H790.7v-112.941ZM1920.034-.011v1242.353h-225.882V225.872H677.68V-.012h1242.353ZM903.529 1016.47H338.824v112.94h564.705v-112.94Z" fill-rule="evenodd"/> </g>
</svg>